<?xml version="1.0" encoding="UTF-8"?>
<svg id="Capa_2" data-name="Capa 2" xmlns="http://www.w3.org/2000/svg" viewBox="0 0 20.38 20.36">
  <defs>
    <style>
      .cls-1 {
        fill: #000;
        stroke-width: 0px;
      }
    </style>
  </defs>
  <g id="Capa_1-2" data-name="Capa 1">
    <path class="cls-1" d="M20.19,13.01c-.38,1.28-.56,2.43-.54,3.46.03,1.03.27,2.15.72,3.35l-.54.54c-1.2-.46-2.32-.7-3.36-.72-1.04-.02-2.19.16-3.47.54l-.12-1.65c.96-.2,1.86-.28,2.7-.26.83.03,1.84.26,3.01.71l.05-.05c-.34-.34-.78-.69-1.32-1.04-.64-.44-1.15-.83-1.51-1.2L3.67,4.57c-.37-.37-.78-.88-1.21-1.52-.33-.52-.67-.95-1.03-1.31l-.05.05c.45,1.17.68,2.17.71,3.01.03.83-.06,1.73-.26,2.7l-1.65-.12c.38-1.28.57-2.43.54-3.47S.47,1.75.02.54L.56,0c1.2.46,2.32.7,3.35.72s2.19-.15,3.46-.54l.14,1.63c-.96.2-1.87.28-2.71.26-.84-.02-1.85-.25-3.02-.7l-.05.05c.35.35.79.69,1.31,1.03.64.44,1.15.84,1.52,1.21l12.13,12.13c.37.37.78.88,1.21,1.52.33.52.67.95,1.03,1.31l.05-.05c-.45-1.17-.68-2.18-.7-3.02-.02-.84.07-1.74.26-2.71l1.63.14Z"/>
    <path class="cls-1" d="M13.01.19c1.28.38,2.43.56,3.46.54,1.03-.03,2.15-.27,3.35-.72l.54.54c-.46,1.2-.7,2.32-.72,3.36-.02,1.04.16,2.19.54,3.47l-1.65.12c-.2-.96-.28-1.86-.26-2.7.03-.83.26-1.84.71-3.01l-.05-.05c-.34.34-.69.78-1.04,1.32-.44.64-.83,1.15-1.2,1.51l-12.13,12.13c-.37.37-.88.78-1.52,1.21-.52.33-.95.67-1.31,1.03l.05.05c1.17-.45,2.17-.68,3.01-.71.83-.03,1.73.06,2.7.26l-.12,1.65c-1.28-.38-2.43-.57-3.47-.54s-2.16.26-3.36.72l-.54-.54c.46-1.2.7-2.32.72-3.35s-.15-2.19-.54-3.46l1.63-.14c.2.96.28,1.87.26,2.71-.02.84-.25,1.85-.7,3.02l.05.05c.35-.35.69-.79,1.03-1.31.44-.64.84-1.15,1.21-1.52L15.81,3.67c.37-.37.88-.78,1.52-1.21.52-.33.95-.67,1.31-1.03l-.05-.05c-1.17.45-2.18.68-3.02.7-.84.02-1.74-.07-2.71-.26l.14-1.63Z"/>
  </g>
</svg>